# xmcd
#
# Track frame offsets:
#  150
#  12867
#  26064
#  39737
#  52719
#  63933
#  77011
#  90255
#  100084
#  113223
#  126411
#  140251
#  152360
#  166371
#  178508
#  189427
#  201280
#  214964
#  227452
#  238884
#  249493
#  260920
#  271221
#  280710
#  290333
#  299701
#
# Disc length: 4147 seconds
#
# Revision: 0
# Processed by: cddbd v1.5.1PL2 Copyright (c) Steve Scherf et al.
# Submitted via: Collectorz.com_Music_Collector 6.11
#
DISCID=7110311a
DTITLE=T-Bone Walker - Complete 1950-1954 Recordings [CD2)
DYEAR=2004
DGENRE=Blues
TTITLE0=Blues Is a Woman
TTITLE1=I Got the Blues
TTITLE2=Here in the Dark
TTITLE3=Blue Mood
TTITLE4=Everytime
TTITLE5=I Miss You Baby
TTITLE6=Lollie Lou
TTITLE7=Party Girl
TTITLE8=Love Is a Gamble
TTITLE9=High Society
TTITLE10=Long Distance Blues
TTITLE11=Got No Use for You
TTITLE12=I'm Still in Love With You
TTITLE13=Railroad Station Blues
TTITLE14=Vida Lee
TTITLE15=My Baby Is Now on My Mind
TTITLE16=Doin' Time
TTITLE17=Bye, Bye, Baby
TTITLE18=When the Sun Goes Down
TTITLE19=Pony Tail
TTITLE20=Wanderin' Heart
TTITLE21=I'll Always Be in Love With You
TTITLE22=I'll Understand
TTITLE23=Hard Way
TTITLE24=Teen Age Baby
TTITLE25=Strugglin' Blues
EXTD=
EXTT0=
EXTT1=
EXTT2=
EXTT3=
EXTT4=
EXTT5=
EXTT6=
EXTT7=
EXTT8=
EXTT9=
EXTT10=
EXTT11=
EXTT12=
EXTT13=
EXTT14=
EXTT15=
EXTT16=
EXTT17=
EXTT18=
EXTT19=
EXTT20=
EXTT21=
EXTT22=
EXTT23=
EXTT24=
EXTT25=
PLAYORDER=
